<svg width="21" height="20" viewBox="0 0 21 20" fill="none" xmlns="http://www.w3.org/2000/svg">
<path d="M12.7395 7.15C12.7676 6.77813 12.8301 5.74688 12.7269 4.725C12.6895 4.33125 12.6113 3.93749 12.4988 3.55938C12.402 3.23124 12.3801 1.81562 12.3988 0.918751C12.402 0.778122 12.352 0.646877 12.252 0.546875C12.1551 0.446873 12.0238 0.390625 11.8832 0.390625H9.8332C9.69259 0.390625 9.56132 0.446873 9.46445 0.546875C9.36445 0.646877 9.31445 0.778122 9.31758 0.918751C9.33633 1.81562 9.31445 3.23124 9.21758 3.55938C9.10508 3.93749 9.02696 4.33125 8.98946 4.725C8.88633 5.74688 8.94883 6.77813 8.97695 7.15C8.01133 7.82187 7.43945 8.91249 7.43945 10.0937V17.7469C7.43945 18.775 8.27695 19.6094 9.30196 19.6094H12.4144C13.4395 19.6094 14.277 18.775 14.277 17.7469V10.0937C14.277 8.91249 13.7051 7.82187 12.7395 7.15ZM9.79883 0.874996C9.80508 0.86874 9.81757 0.859375 9.8332 0.859375H11.8832C11.8988 0.859375 11.9113 0.86874 11.9176 0.874996C11.9238 0.881252 11.9332 0.890617 11.9301 0.909367C11.9269 1.05312 11.9238 1.27188 11.9238 1.52813H9.79259C9.79259 1.27188 9.78946 1.05312 9.78633 0.909367C9.7832 0.890617 9.79259 0.881252 9.79883 0.874996ZM13.8082 14.525H7.9082V11.5375H13.8082V14.525Z" fill="#1D2433"/>
</svg>
