<svg width="21" height="20" viewBox="0 0 21 20" fill="none" xmlns="http://www.w3.org/2000/svg">
<path d="M18.2616 11.5199C18.4354 9.94644 18.6226 8.26559 17.0048 6.98668C17.1665 5.3191 16.8299 4.13766 16.6062 3.34926C16.4988 2.97387 16.4213 2.70039 16.4479 2.57414C16.46 2.51324 16.6438 2.4468 16.6438 2.17664C16.6438 2.03492 16.5774 1.90645 16.4767 1.80902C16.4966 1.75918 16.5088 1.70383 16.5088 1.65066C16.5088 1.13359 15.6883 1.05273 15.2896 1.05273C14.8921 1.05273 14.0716 1.13359 14.0716 1.65066C14.0716 1.70383 14.0838 1.76031 14.1037 1.80902C14.0029 1.90645 13.9365 2.03492 13.9365 2.17664C13.9365 2.44684 14.1203 2.51324 14.1325 2.57414C14.1591 2.70039 14.0816 2.97387 13.9742 3.34926C13.7505 4.13766 13.4139 5.3191 13.5756 6.98668C13.5368 7.01769 13.4992 7.04762 13.4626 7.07969C14.3839 8.32094 14.4182 9.71723 14.2765 11.1932H17.6692C17.5474 12.3348 17.4123 13.4687 17.3514 14.617H13.9332C13.8524 15.7209 13.8291 16.8105 13.8811 17.9167H17.3957C17.4001 17.9754 17.4045 18.0352 17.4101 18.0938C17.4167 18.1647 17.4222 18.2721 17.3226 18.2721H13.9C13.9133 18.4803 13.9277 18.6884 13.9454 18.8977H17.3226C17.8042 18.8977 18.0722 18.4858 18.0324 18.0407C17.956 17.1571 17.9217 16.2978 17.946 15.3345C17.9792 14.0523 18.1199 12.7911 18.2616 11.5199ZM15.2896 5.97906C14.9796 5.97906 14.7271 5.7266 14.7271 5.41543C14.7271 5.10426 14.9796 4.85184 15.2896 4.85184C15.6008 4.85184 15.8533 5.1043 15.8533 5.41543C15.8533 5.72656 15.6008 5.97906 15.2896 5.97906ZM3.22134 14.617C3.16044 13.4687 3.02537 12.3348 2.90357 11.1932H6.29626C6.28668 11.0974 6.27819 11.0014 6.2708 10.9054C6.15122 9.43711 6.29958 8.16043 7.1079 7.07746C7.0715 7.0466 7.0346 7.01634 6.9972 6.98668C7.15884 5.3191 6.8222 4.13766 6.59748 3.34926C6.49115 2.97387 6.41365 2.70039 6.44021 2.57414C6.4524 2.51324 6.63513 2.4468 6.63513 2.17664C6.63513 2.03492 6.56869 1.90648 6.469 1.80902C6.48892 1.76031 6.50111 1.70383 6.50111 1.6507C6.50111 1.13359 5.68064 1.05273 5.28197 1.05273C4.8833 1.05273 4.06287 1.13359 4.06287 1.6507C4.06287 1.70383 4.07505 1.75922 4.09607 1.80902C3.99533 1.90648 3.92888 2.03492 3.92888 2.17664C3.92888 2.44684 4.11271 2.51324 4.1249 2.57414C4.15146 2.70039 4.07396 2.97391 3.96654 3.34926C3.74287 4.13766 3.40626 5.3191 3.56681 6.98668C1.95017 8.26559 2.13622 9.94644 2.31115 11.5199C2.4529 12.7911 2.59353 14.0523 2.62677 15.3345C2.65111 16.2978 2.61568 17.1571 2.53927 18.0407C2.50052 18.4858 2.7674 18.8977 3.25013 18.8977H6.62736C6.64484 18.6894 6.65961 18.4808 6.67166 18.2721H3.25017C3.15048 18.2721 3.15603 18.1647 3.16267 18.0938C3.16708 18.0352 3.17263 17.9754 3.17704 17.9167H6.69158C6.74251 16.8105 6.72037 15.7209 6.63845 14.617H3.22134ZM5.28201 4.85184C5.59314 4.85184 5.8456 5.1043 5.8456 5.41543C5.8456 5.7266 5.59314 5.97906 5.28201 5.97906C4.97087 5.97906 4.71841 5.7266 4.71841 5.41543C4.71841 5.10426 4.97087 4.85184 5.28201 4.85184Z" fill="#1D2433"/>
<path d="M12.1757 6.6559C12.3606 4.7757 11.9819 3.44254 11.7294 2.55563C11.6076 2.12711 11.519 1.81594 11.5512 1.66422C11.57 1.57566 11.7704 1.51922 11.7704 1.22578C11.7704 1.06633 11.6907 0.925703 11.5744 0.821602C11.6032 0.764024 11.6198 0.697578 11.6198 0.634492C11.6198 0.0830469 10.7107 0 10.2866 0C9.86253 0 8.9546 0.0830469 8.9546 0.634492C8.9546 0.697578 8.9712 0.764024 8.99889 0.820508C8.88374 0.925703 8.80288 1.06633 8.80288 1.22578C8.80288 1.51922 9.00444 1.57566 9.02323 1.66426C9.05424 1.81594 8.96565 2.12711 8.84385 2.55563C8.59139 3.44254 8.21272 4.7757 8.39764 6.6559C6.57835 8.08317 6.78651 9.96887 6.98253 11.7339C7.14198 13.1656 7.3003 14.5852 7.33795 16.029C7.36452 17.1153 7.32577 18.0841 7.24049 19.0785C7.19842 19.5568 7.48081 19.9998 8.0001 19.9998H12.5743C13.0936 19.9998 13.376 19.5568 13.3339 19.0785C13.2475 18.0841 13.2088 17.1153 13.2364 16.029C13.273 14.5852 13.4324 13.1656 13.5908 11.7339C13.7868 9.96887 13.996 8.08317 12.1757 6.6559ZM10.2866 4.25531C10.6266 4.25531 10.9012 4.53102 10.9012 4.86984C10.9012 5.20867 10.6266 5.48438 10.2867 5.48438C9.94784 5.48438 9.67323 5.20867 9.67323 4.86984C9.67323 4.53102 9.9478 4.25531 10.2866 4.25531ZM12.5743 19.3752H8.0001C7.85838 19.3752 7.85393 19.2357 7.8628 19.1328L7.88272 18.8969H12.6917L12.7116 19.1328C12.7205 19.2357 12.7149 19.3752 12.5743 19.3752ZM12.643 15.2617H7.9303C7.85944 13.8942 7.68889 12.5522 7.55163 11.1924H13.0216C12.8843 12.5522 12.7138 13.8942 12.6429 15.2617H12.643Z" fill="#1D2433"/>
<path d="M10.2851 14.6029C11.0148 14.6029 11.6072 14.0105 11.6072 13.2808C11.6072 12.5511 11.0159 11.9598 10.2851 11.9598C9.55539 11.9598 8.96406 12.5511 8.96406 13.2808C8.96406 14.0105 9.55535 14.6029 10.2851 14.6029ZM16.4814 12.9043C16.4814 12.2466 15.9477 11.7129 15.2889 11.7129C14.6311 11.7129 14.0975 12.2466 14.0975 12.9043C14.0975 13.5632 14.6312 14.0969 15.2889 14.0969C15.9477 14.0969 16.4814 13.5632 16.4814 12.9043V12.9043ZM5.28125 11.7129C4.62352 11.7129 4.08984 12.2466 4.08984 12.9043C4.08984 13.5632 4.62352 14.0969 5.28125 14.0969C5.94008 14.0969 6.47379 13.5632 6.47379 12.9043C6.47379 12.2466 5.94012 11.7129 5.28125 11.7129Z" fill="#1D2433"/>
</svg>
