<svg width="254" height="188" viewBox="0 0 254 188" fill="none" xmlns="http://www.w3.org/2000/svg">
<g clip-path="url(#clip0_1260_30927)">
<path d="M254 185.823C254 186.268 253.825 186.665 253.54 186.95C253.254 187.236 252.857 187.411 252.412 187.411H1.5875C0.714375 187.411 0 186.696 0 185.823C0 185.379 0.174625 184.982 0.460375 184.697C0.746125 184.411 1.143 184.236 1.5875 184.236H252.412C253.286 184.236 254 184.935 254 185.823Z" fill="#E1E6EF"/>
<path d="M163.068 5.94238H90.043C80.7085 5.94238 73.1678 13.4811 73.1678 22.8132V166.065C73.1678 171.54 75.7872 176.429 79.883 179.523C82.7087 181.666 86.2171 182.904 90.043 182.904H163.052C172.355 182.904 179.895 175.365 179.895 166.065V22.8132C179.911 13.4811 172.371 5.94238 163.068 5.94238ZM178.594 166.049C178.594 174.588 171.64 181.571 163.052 181.571H90.043C81.4705 181.571 74.4696 174.588 74.4696 166.049V22.8132C74.4696 14.2429 81.4546 7.29142 90.043 7.29142H163.052C171.625 7.29142 178.594 14.2429 178.594 22.8132V166.049Z" fill="#D3178A"/>
<path d="M163.068 4.625H90.043C79.9782 4.625 71.8185 12.7827 71.8185 22.8132V166.065C71.8185 176.079 79.9782 184.237 90.043 184.237H163.052C173.069 184.237 181.245 176.079 181.245 166.065V22.8132C181.245 12.7827 173.085 4.625 163.068 4.625ZM178.594 166.049C178.594 174.587 171.64 181.571 163.052 181.571H90.043C81.4705 181.571 74.4696 174.587 74.4696 166.049V22.8132C74.4696 14.2428 81.4546 7.29133 90.043 7.29133H163.052C171.625 7.29133 178.594 14.2428 178.594 22.8132V166.049Z" fill="#E1E6EF"/>
<path d="M178.594 22.8134V166.065C178.594 174.604 171.64 181.587 163.052 181.587H90.043C81.4705 181.587 74.4696 174.604 74.4696 166.065V22.8134C74.4696 14.243 81.4546 7.29153 90.043 7.29153H163.052C171.64 7.27566 178.594 14.2272 178.594 22.8134Z" fill="white"/>
<path d="M153.035 158.78H100.044C98.9965 158.78 98.1392 157.923 98.1392 156.875V141.084C98.1392 140.036 98.9965 139.179 100.044 139.179H153.035C154.083 139.179 154.94 140.036 154.94 141.084V156.875C154.94 157.923 154.083 158.78 153.035 158.78Z" fill="#0162DD"/>
<path d="M156.797 16.7347H101.854C101.727 16.7347 101.616 16.6236 101.616 16.4966V5.94238H157.035V16.4807C157.035 16.6236 156.924 16.7347 156.797 16.7347Z" fill="#1D2433"/>
<path d="M139.621 10.6719H119.031V11.9892H139.621V10.6719Z" fill="white"/>
<path d="M150.479 12.9574C151.373 12.9574 152.098 12.2326 152.098 11.3386C152.098 10.4445 151.373 9.71973 150.479 9.71973C149.585 9.71973 148.86 10.4445 148.86 11.3386C148.86 12.2326 149.585 12.9574 150.479 12.9574Z" fill="white"/>
<path d="M60.5631 22.1464L73.6282 0.165039H85.3916L75.2316 22.1464H60.5631Z" fill="#D3178A"/>
<path d="M75.2316 22.1464L85.3916 0.165039H97.1391L89.8843 22.1464H75.2316Z" fill="white"/>
<path d="M89.8842 22.1464L97.1391 0.165039H108.902L104.553 22.1464H89.8842Z" fill="#D3178A"/>
<path d="M104.553 22.1464L108.902 0.165039H120.666L119.205 22.1464H104.553Z" fill="white"/>
<path d="M119.205 22.1464L120.666 0.165039H132.413L133.874 22.1464H119.205Z" fill="#D3178A"/>
<path d="M133.874 22.1464L132.413 0.165039H144.177L148.526 22.1464H133.874Z" fill="white"/>
<path d="M148.527 22.1464L144.177 0.165039H155.94L163.195 22.1464H148.527Z" fill="#D3178A"/>
<path d="M163.195 22.1464L155.94 0.165039H167.688L177.848 22.1464H163.195Z" fill="white"/>
<path d="M177.848 22.1464L167.688 0.165039H179.451L192.516 22.1464H177.848Z" fill="#D3178A"/>
<path d="M60.5631 29.9709C60.5631 34.018 63.8492 37.3033 67.8974 37.3033C71.9455 37.3033 75.2316 34.018 75.2316 29.9709V22.1465H60.5631V29.9709Z" fill="#AA136F"/>
<path d="M89.8842 29.9709C89.8842 34.018 93.1703 37.3033 97.2185 37.3033C101.267 37.3033 104.553 34.018 104.553 29.9709V22.1465H89.8842V29.9709Z" fill="#AA136F"/>
<path d="M119.205 29.9709C119.205 34.018 122.492 37.3033 126.54 37.3033C130.588 37.3033 133.874 34.018 133.874 29.9709V22.1465H119.205V29.9709Z" fill="#AA136F"/>
<path d="M148.526 29.9709C148.526 34.018 151.813 37.3033 155.861 37.3033C159.909 37.3033 163.195 34.018 163.195 29.9709V22.1465H148.526V29.9709Z" fill="#AA136F"/>
<path d="M177.848 22.1465V29.9709C177.848 34.018 181.134 37.3033 185.182 37.3033C189.23 37.3033 192.516 34.018 192.516 29.9709V22.1465H177.848Z" fill="#AA136F"/>
<path d="M75.2316 29.9709C75.2316 34.018 78.5178 37.3033 82.5659 37.3033C86.614 37.3033 89.9001 34.018 89.9001 29.9709V22.1465H75.2316V29.9709Z" fill="#E5E6EB"/>
<path d="M104.553 29.9709C104.553 34.018 107.839 37.3033 111.887 37.3033C115.935 37.3033 119.221 34.018 119.221 29.9709V22.1465H104.553V29.9709Z" fill="#E5E6EB"/>
<path d="M133.874 29.9709C133.874 34.018 137.16 37.3033 141.208 37.3033C145.256 37.3033 148.542 34.018 148.542 29.9709V22.1465H133.874V29.9709Z" fill="#E5E6EB"/>
<path d="M163.195 29.9709C163.195 34.018 166.481 37.3033 170.529 37.3033C174.577 37.3033 177.864 34.018 177.864 29.9709V22.1465H163.195V29.9709Z" fill="#E5E6EB"/>
<path d="M135.128 98.6289C134.604 98.6289 134.096 98.4226 133.731 98.0417L126.603 90.9156L119.475 98.0417C119.094 98.4226 118.602 98.6289 118.078 98.6289C117.554 98.6289 117.046 98.4226 116.681 98.0417C115.903 97.264 115.903 96.0102 116.681 95.2484L123.809 88.1223L116.681 80.9962C115.903 80.2186 115.903 78.9648 116.681 78.203C117.062 77.822 117.554 77.6157 118.078 77.6157C118.602 77.6157 119.11 77.822 119.475 78.203L126.603 85.329L133.731 78.203C134.112 77.822 134.604 77.6157 135.128 77.6157C135.652 77.6157 136.16 77.822 136.525 78.203C136.906 78.5839 137.112 79.0759 137.112 79.5996C137.112 80.1233 136.906 80.6312 136.525 80.9962L129.397 88.1223L136.525 95.2484C136.906 95.6293 137.112 96.1213 137.112 96.645C137.112 97.1688 136.906 97.6767 136.525 98.0417C136.16 98.4226 135.652 98.6289 135.128 98.6289Z" fill="#0162DD"/>
<path d="M128.27 88.1224L135.969 80.425C136.43 79.9647 136.43 79.2188 135.969 78.7427C135.509 78.2824 134.763 78.2824 134.287 78.7427L126.587 86.4401L118.904 78.7427C118.443 78.2824 117.697 78.2824 117.221 78.7427C116.761 79.2029 116.761 79.9489 117.221 80.425L124.92 88.1224L117.221 95.8198C116.761 96.2801 116.761 97.026 117.221 97.5022C117.459 97.7402 117.761 97.8513 118.062 97.8513C118.364 97.8513 118.666 97.7402 118.904 97.5022L126.603 89.8047L134.303 97.5022C134.541 97.7402 134.842 97.8513 135.144 97.8513C135.446 97.8513 135.747 97.7402 135.985 97.5022C136.446 97.0419 136.446 96.296 135.985 95.8198L128.27 88.1224Z" fill="#0162DD"/>
<path d="M126.587 109.738C114.665 109.738 104.966 100.041 104.966 88.1222C104.966 76.203 114.665 66.5059 126.587 66.5059C138.509 66.5059 148.209 76.203 148.209 88.1222C148.209 100.041 138.509 109.738 126.587 109.738ZM126.587 68.8865C115.983 68.8865 107.347 77.5203 107.347 88.1222C107.347 98.724 115.983 107.358 126.587 107.358C137.192 107.358 145.828 98.724 145.828 88.1222C145.828 77.5045 137.208 68.8865 126.587 68.8865Z" fill="#0162DD"/>
<path d="M71.2787 88.1222C69.0404 87.5667 66.802 86.9953 64.5954 86.3764C62.3887 85.7574 60.2139 85.1067 58.1184 84.3449C56.0229 83.5831 54.0226 82.726 52.2129 81.6944C50.4031 80.6628 48.7839 79.4566 47.371 78.06C45.974 76.6474 44.7516 75.0445 43.6245 73.2828C42.5132 71.5211 41.5131 69.6166 40.5606 67.6327C40.3225 67.1249 40.0844 66.6487 39.8621 66.1409L39.1795 64.6172C38.735 63.5856 38.2905 62.5699 37.8619 61.5224C37.0046 59.4433 36.1791 57.3166 35.3536 55.174C34.2582 52.4918 30.8927 51.3491 27.9717 52.6822C25.0507 54.0313 23.7331 57.3483 25.1301 59.9829C26.289 62.0303 27.4479 64.0776 28.6702 66.125C29.2735 67.1566 29.9085 68.1723 30.5276 69.1881L31.496 70.7117C31.8135 71.2196 32.1627 71.7274 32.4961 72.2353C33.8614 74.2668 35.3219 76.2824 36.9887 78.2187C38.6556 80.1549 40.5447 82.0118 42.672 83.5831C44.8151 85.1543 47.1646 86.4081 49.5459 87.3286C51.9271 88.2491 54.3242 88.884 56.6896 89.3601C59.055 89.8362 61.4045 90.1854 63.7381 90.4869C66.0717 90.7885 68.3895 91.0266 70.7072 91.2646C71.4851 91.344 72.2154 90.7568 72.3582 89.8997C72.517 89.1062 72.0249 88.2968 71.2787 88.1222Z" fill="#EA8096"/>
<path d="M30.7658 74.8382L24.7015 62.5858C22.86 58.872 24.0824 54.4122 27.7813 52.5712C31.496 50.7302 36.2903 52.2379 38.1318 55.9358L44.196 68.1882L30.7658 74.8382Z" fill="#84A9FF"/>
<path d="M38.5128 55.7455C36.7665 52.2222 32.385 50.4764 28.5433 51.7778C28.2099 51.8889 27.8924 52.0159 27.5908 52.1746C25.8763 53.0157 24.5904 54.4441 23.9395 56.2058L24.4793 56.0153C25.1143 54.5711 26.2255 53.3173 27.7971 52.5555C31.496 50.7144 36.3061 52.2222 38.1476 55.9201L38.3064 56.2375L38.7191 56.0947L38.5128 55.7455ZM41.1956 61.1734L40.7829 61.3162L44.196 68.2043L38.7826 70.8865L38.9255 71.2991L44.7834 68.4106L41.1956 61.1734ZM25.4635 64.1254L25.0508 64.2683L30.5594 75.4097L32.8771 74.267L32.7343 73.8543L30.7499 74.8383L25.4635 64.1254Z" fill="#0162DD"/>
<path d="M40.8623 184.237H55.626C55.6101 183.729 55.5149 183.253 55.2133 182.856C54.864 182.396 54.2925 182.174 53.7369 182.063C53.1654 181.967 52.5939 181.999 52.0224 181.967C50.6254 181.904 49.2443 181.491 48.0219 180.809C47.3869 180.444 46.7836 180.015 46.101 179.761L42.0846 179.872C41.529 180.46 41.1798 181.237 41.0051 182.047C40.8305 182.745 40.8146 183.491 40.8623 184.237Z" fill="#1D2433"/>
<path d="M12.1126 184.237H26.8764C26.8605 183.729 26.7653 183.253 26.4636 182.856C26.1144 182.396 25.5429 182.174 24.9873 182.063C24.4158 181.967 23.8443 181.999 23.2728 181.967C21.8758 181.904 20.4946 181.491 19.2723 180.809C18.6373 180.444 18.034 180.015 17.3514 179.761L13.335 179.872C12.7794 180.46 12.4301 181.237 12.2555 182.047C12.0809 182.745 12.065 183.491 12.1126 184.237Z" fill="#1D2433"/>
<path d="M46.863 179.793L45.2597 134.307C45.2597 134.307 45.212 133.497 45.1803 133.37L41.2433 101.803C40.9734 97.8352 9.49329 104.12 9.49329 104.12L13.0175 179.92L18.2245 179.761L25.5747 117.864L34.4012 135.323L41.5449 179.92L46.863 179.793Z" fill="#1D2433"/>
<path d="M22.5901 50.4284C30.5911 49.2063 37.9254 55.0944 38.4651 63.1728L41.2591 101.803C28.7972 108.834 21.0661 107.135 9.50911 104.12L8.20736 67.7912C7.88986 59.1892 14.0811 51.7139 22.5901 50.4284Z" fill="#84A9FF"/>
<path d="M8.33439 71.4417H7.90576L8.54076 89.0903H8.96939L8.33439 71.4417ZM40.7829 89.4236L40.3543 89.4553L41.2433 101.803C29.4323 108.469 21.8758 107.294 11.2871 104.58L11.303 105.025C16.2878 106.294 20.3359 107.151 24.5745 107.151C30.1466 107.151 35.3536 105.612 41.4655 102.168L41.7036 102.041L40.7829 89.4236ZM24.6856 50.2698C31.8294 50.2698 37.9571 55.8088 38.4493 63.1729L39.3065 74.9968H39.7351L38.8779 63.1412C38.3858 55.6818 32.1469 49.8413 24.6856 49.8413C23.9713 49.8413 23.241 49.8889 22.5266 50C22.479 50.0159 22.4314 50.0159 22.3679 50.0159L22.3361 50.4603C22.4155 50.4444 22.4949 50.4285 22.5901 50.4127C23.2886 50.3174 23.9871 50.2698 24.6856 50.2698Z" fill="#0162DD"/>
<path d="M27.9241 46.3973L26.6859 56.158C24.384 57.2689 22.2726 56.9991 20.3359 55.3485L21.5741 45.5879L27.9241 46.3973Z" fill="#F5BDC8"/>
<path d="M27.9241 46.3973L27.3685 50.8094C26.9081 50.9205 26.416 50.9682 25.908 50.9523C25.7492 50.9523 25.5905 50.9364 25.4317 50.9047C23.6855 50.6825 22.1456 49.6667 21.2566 48.2066L21.59 45.5879L27.9241 46.3973Z" fill="#EA8096"/>
<path d="M31.5754 40.7951L30.9086 44.8581L30.6387 46.4928C30.2577 48.7782 28.2416 50.4129 25.9397 50.3018C25.1777 50.2701 24.4475 50.0637 23.7966 49.7305C23.6537 49.6511 23.495 49.5717 23.3521 49.4765C23.2569 49.413 23.1775 49.3654 23.0981 49.3019C22.2885 48.6988 21.6694 47.8736 21.336 46.8737C21.0502 46.0325 20.8121 45.1279 20.574 44.1597C20.447 43.6043 20.32 43.0488 20.2089 42.4774C19.685 39.9539 20.5581 37.3035 22.5584 35.6688C24.2729 34.288 26.2255 34.034 28.448 35.0022C30.6864 35.9703 31.9722 38.3668 31.5754 40.7951Z" fill="#F5BDC8"/>
<path d="M32.8454 42.0328C33.3216 41.6678 33.4169 40.906 33.4169 40.2552C33.401 39.6045 33.3375 38.9221 33.6233 38.3349C33.9884 37.5889 34.8456 37.2398 35.052 36.4303C35.2584 35.6368 34.7504 34.9385 34.2582 34.4147C32.9883 33.0339 31.7024 31.6373 30.4324 30.2565C29.9085 29.6852 29.3687 29.1138 28.7179 28.7964C28.0511 28.479 27.2256 28.4631 26.5906 28.9868C26.2572 29.2567 26.0032 29.6534 25.6699 29.9074C24.892 30.4787 23.9554 30.1613 23.1299 29.9232C22.098 29.6217 20.9709 29.4947 19.9549 30.0026C18.923 30.5105 18.0657 31.8436 18.2562 33.0816C18.3515 33.6688 18.6531 34.1608 18.8754 34.6845C19.0976 35.2083 19.2564 35.8431 19.05 36.4303C18.7642 37.208 17.9864 37.4937 17.3672 37.9222C16.51 38.5412 15.8909 39.6522 15.748 40.8107C15.621 41.9693 15.9702 43.1438 16.6687 43.858C17.272 44.4769 18.3356 44.6991 18.9389 43.9373C19.6215 43.0644 19.3834 41.398 20.2724 40.8742C21.336 40.2394 22.3996 42.2709 23.4474 41.6202C24.0189 41.271 24.1617 40.3505 24.6697 39.8743C25.3365 39.2395 26.1937 39.6045 26.8605 39.8585C27.5749 40.1283 28.2575 40.287 29.0036 40.414C29.6862 40.5409 30.2101 40.8583 30.7499 41.3186C31.3055 41.7947 32.0675 42.6042 32.8454 42.0328Z" fill="#1D2433"/>
<path d="M23.3359 42.7573C23.4851 41.5834 22.5413 40.4967 21.228 40.3299C19.9147 40.1631 18.7292 40.9795 18.58 42.1534C18.4309 43.3272 19.3746 44.414 20.6879 44.5808C22.0013 44.7475 23.1868 43.9311 23.3359 42.7573Z" fill="#F5BDC8"/>
<path d="M67.5799 92.3282C66.5322 92.3282 65.4844 92.2964 64.4525 92.2647L63.7064 92.2488C63.2937 92.233 62.8809 92.2171 62.4523 92.1853C62.23 92.1695 61.9919 92.1536 61.7697 92.1536L60.8013 92.106L59.8488 92.0266C59.6265 92.0108 59.3884 91.9949 59.1662 91.979C58.7693 91.9473 58.3407 91.9155 57.9279 91.8679L56.0229 91.6775L54.1338 91.4235C53.7369 91.3759 53.3242 91.2966 52.9432 91.2331C52.7209 91.2013 52.4987 91.1537 52.2764 91.122C49.6094 90.63 47.2758 90.011 45.1644 89.2175C42.8467 88.3446 40.7353 87.2495 38.9097 85.948C35.4965 83.5357 32.4962 80.171 29.4958 75.378C28.321 73.5052 27.1145 71.3785 25.8128 68.8709C24.7809 66.8711 23.7014 64.6809 22.4314 61.9987C21.7647 60.6179 20.574 59.5546 19.1612 59.0943C17.907 58.6817 16.5894 58.7769 15.4623 59.3641C14.3352 59.9514 13.5097 60.983 13.1445 62.2527C12.7318 63.6969 12.954 65.3158 13.7637 66.6807C15.3829 69.3152 16.764 71.4737 18.0658 73.4417C19.7962 76.0287 21.3202 78.1395 22.86 80.0758C24.7968 82.504 26.6542 84.5355 28.5592 86.2813C30.7658 88.3287 33.1153 90.0269 35.5442 91.3759C37.9572 92.7091 40.64 93.7566 43.5293 94.4866C46.0375 95.1215 48.7204 95.5341 51.7208 95.7404C51.9589 95.7563 52.1812 95.7722 52.4193 95.7881C52.8479 95.8198 53.3083 95.8515 53.7528 95.8515L55.7689 95.8992L57.7692 95.8833C57.785 95.8833 57.785 95.8833 57.8009 95.8833C58.2295 95.8833 58.6582 95.8674 59.0709 95.8515C59.309 95.8357 59.5313 95.8357 59.7694 95.8198L60.7695 95.7881L61.7697 95.7246C62.0078 95.7087 62.23 95.6928 62.4682 95.677C62.8968 95.6452 63.3254 95.6293 63.754 95.5976L64.4843 95.5341C65.532 95.4548 66.6274 95.3595 67.691 95.2484C68.5483 95.1691 69.1833 94.4866 69.1357 93.709C69.1198 92.9472 68.4372 92.3282 67.5799 92.3282Z" fill="#F4BCC7"/>
<path d="M19.7803 80.3771L13.0493 69.077C11.0173 65.6647 11.8428 61.2843 15.2559 59.237L15.5576 59.2052C18.9707 57.1737 23.3998 58.2847 25.4318 61.7128L32.1628 73.013L19.7803 80.3771Z" fill="#84A9FF"/>
<path d="M25.7969 61.4907C24.4317 59.1894 21.9234 57.7769 19.2405 57.7769C18.5897 57.7769 17.9547 57.8562 17.3197 58.0308L17.4943 58.4117C20.4947 57.6658 23.7649 58.9196 25.4318 61.7129L27.1939 64.6807L27.559 64.4903L25.7969 61.4907ZM31.1309 70.4419L30.7658 70.6324L32.1787 72.9971L24.6539 77.4728L24.8603 77.8378L32.7502 73.14L31.1309 70.4419ZM14.5892 59.6972L14.3828 59.3322C13.0175 60.3638 12.065 61.8398 11.6999 63.5539C11.2872 65.4902 11.6364 67.5216 12.6842 69.2833L17.9864 78.1711L18.3833 78.0282L13.0493 69.0611C11.1602 65.9028 11.7317 61.8874 14.5892 59.6972Z" fill="#0162DD"/>
<path d="M32.4248 86.4493L32.2128 87.7495L70.789 94.0366L71.001 92.7364L32.4248 86.4493Z" fill="#1D2433"/>
<path d="M70.993 92.7565L47.0377 88.8522L57.6422 70.4419L81.5975 74.3462L70.993 92.7565Z" fill="#0162DD"/>
<path d="M65.3892 83.5198C64.5796 85.456 63.3413 86.7733 62.6111 86.4718C61.8967 86.1702 61.9761 84.3609 62.7857 82.4247C63.5953 80.4884 64.8336 79.1711 65.5638 79.4727C66.2782 79.7901 66.1988 81.5994 65.3892 83.5198Z" fill="white"/>
<path d="M27.2415 84.9798C27.686 85.4242 28.1464 85.8686 28.5909 86.2812C30.7975 88.3286 33.147 90.0427 35.5759 91.3758C37.9889 92.709 40.6718 93.7565 43.561 94.4865C46.0058 95.1055 48.6251 95.5181 51.5461 95.7245L53.0701 91.233C53.0384 91.233 53.0066 91.2171 52.9749 91.2171C52.7526 91.1854 52.5304 91.1378 52.3081 91.106C49.6411 90.614 47.3075 89.995 45.1961 89.2015C42.8784 88.3286 40.767 87.2335 38.9414 85.9321C36.7983 84.4243 34.8298 82.5357 32.9089 80.1709C32.6231 80.5677 32.3374 80.9486 32.0516 81.3295C31.6389 81.885 31.1944 82.4087 30.7023 82.9007C30.3054 83.361 29.8609 83.7577 29.3529 84.1069C29.0354 84.2815 28.7338 84.4561 28.4163 84.6465C28.0353 84.7894 27.6384 84.9163 27.2415 84.9798Z" fill="#F4BCC7"/>
<path d="M231.473 107.294C233.14 95.2159 232.41 82.9635 232.934 70.7905C233.474 58.6174 235.442 46.1111 241.887 35.7632C225.774 45.3493 216.392 63.3311 211.487 81.4399C206.597 99.5487 205.391 118.451 201.12 136.719C200.089 141.131 198.882 145.717 200.009 150.098C201.184 154.685 205.502 158.795 209.582 155.621C213.551 152.558 217.027 145.702 219.535 141.416C225.711 130.957 229.807 119.308 231.473 107.294Z" fill="#0162DD"/>
<path d="M199.025 150.637C200.723 154.875 205.089 158.319 208.772 155.986C209.137 155.764 209.486 155.462 209.836 155.113C209.867 155.081 209.883 155.065 209.915 155.034C213.614 151.241 216.297 143.638 218.329 138.829C223.345 127.021 226.044 114.214 226.123 101.374C226.219 88.4708 223.742 75.7105 222.631 62.855C221.52 49.9995 221.853 36.6044 227.203 24.8599C211.614 37.144 204.248 57.316 201.597 76.9802C198.961 96.6602 200.295 116.658 198.342 136.417C197.882 141.194 197.247 146.178 199.025 150.637Z" fill="#84A9FF"/>
<path d="M208.772 155.97C209.137 155.748 209.486 155.446 209.836 155.097C209.867 155.065 209.883 155.049 209.915 155.018C208.423 147.908 208.709 139.48 210.772 129.211C211.407 126.053 212.153 122.847 212.868 119.752C214.82 111.388 216.837 102.739 216.837 93.9938C216.837 89.4864 216.297 84.9473 215.773 80.5669C215.408 77.5514 215.043 74.4248 214.852 71.3459C214.297 62.22 214.519 54.475 217.853 49.0947C214.376 54.7131 212.963 62.0137 213.535 71.4252C213.725 74.5359 214.106 77.6784 214.455 80.7097C214.979 85.0584 215.503 89.5499 215.503 93.9938C215.503 102.58 213.503 111.166 211.582 119.451C210.852 122.562 210.106 125.767 209.471 128.958C207.327 139.734 207.089 148.542 208.772 155.97Z" fill="white"/>
<path d="M192.818 152.907L193.008 154.414L196.977 184.236H219.98L223.949 154.414L224.139 152.907H192.818Z" fill="#D3178A"/>
<path d="M190.195 152.914H226.771V146.533H190.195V152.914Z" fill="#D3178A"/>
<path d="M192.818 152.907L193.008 154.414H223.949L224.139 152.907H192.818Z" fill="#AA136F"/>
</g>
<defs>
<clipPath id="clip0_1260_30927">
<rect width="254" height="187" fill="white" transform="translate(0 0.5)"/>
</clipPath>
</defs>
</svg>
