<svg width="21" height="20" viewBox="0 0 21 20" fill="none" xmlns="http://www.w3.org/2000/svg">
<g clip-path="url(#clip0_654_50928)">
<path d="M18.0449 1.17189H14.3535C13.4863 1.17189 12.7597 1.79295 12.6191 2.63674L12.2793 4.68752H13.4629L13.7675 2.83592C13.8145 2.55467 14.0605 2.34377 14.3535 2.34377H18.0449C18.3731 2.34377 18.6309 2.08592 18.6309 1.75783C18.6309 1.42967 18.3731 1.17189 18.0449 1.17189ZM7.88887 0.149355C7.66684 -0.0497852 7.32926 -0.0497852 7.10723 0.149355C7.05117 0.199707 5.74023 1.39104 5.74023 2.92971C5.74023 3.42229 5.88035 3.87232 6.06488 4.26768C6.38684 3.80939 6.91238 3.51564 7.49805 3.51564H9.19172C9.23121 3.32717 9.25586 3.13197 9.25586 2.92971C9.25586 1.39104 7.94492 0.199707 7.88887 0.149355ZM5.00266 4.76248C4.71027 4.13588 4.56836 3.53619 4.56836 2.92971C4.56836 2.3258 4.71707 1.77928 4.91992 1.29342C4.61391 1.22146 4.30207 1.17189 3.98242 1.17189H2.81055C2.48668 1.17189 2.22461 1.43396 2.22461 1.75783C2.22461 3.72256 3.61785 5.35787 5.46535 5.75603L5.00266 4.76248Z" fill="#1D2433"/>
<path d="M16.2636 5.13281C16.205 4.86324 15.9707 4.6875 15.7012 4.6875H13.4629L13.0723 7.03125H16.7502L16.2636 5.13281ZM17.0505 8.20316H6.1468C5.99871 8.89031 5.74023 9.42223 5.74023 10.4414C5.74023 12.5391 6.90039 14.5039 8.78707 15.4414C9.21277 15.65 9.52707 16.0332 9.67168 16.4844H13.5276C13.6728 16.0325 13.9893 15.6469 14.4237 15.4297C16.2988 14.5039 17.459 12.5391 17.459 10.4414C17.459 9.44848 17.1932 8.86215 17.0505 8.20316ZM7.49805 4.68754C7.22855 4.68754 6.99414 4.86328 6.93559 5.13285L6.44785 7.03129H11.8822L12.2793 4.68754H7.49805ZM15.7012 18.8282C15.1738 18.8282 14.6464 18.6875 14.1895 18.4063C13.8884 18.2312 13.683 17.9662 13.5618 17.6563H9.6366C9.51523 17.9671 9.3093 18.2309 9.00977 18.4063C8.55277 18.6875 8.02539 18.8282 7.49805 18.8282C7.16988 18.8282 6.91211 19.0859 6.91211 19.4141C6.91211 19.7422 7.16988 20 7.49805 20H15.7012C16.0293 20 16.2871 19.7422 16.2871 19.4141C16.2871 19.0859 16.0293 18.8282 15.7012 18.8282Z" fill="#1D2433"/>
</g>
<defs>
<clipPath id="clip0_654_50928">
<rect width="20" height="20" fill="white" transform="translate(0.427734)"/>
</clipPath>
</defs>
</svg>
