<svg width="21" height="20" viewBox="0 0 21 20" fill="none" xmlns="http://www.w3.org/2000/svg">
<path d="M8.9078 13.1574C9.969 13.1574 10.8293 12.2971 10.8293 11.2359C10.8293 10.1747 9.969 9.31445 8.9078 9.31445C7.8466 9.31445 6.98633 10.1747 6.98633 11.2359C6.98633 12.2971 7.8466 13.1574 8.9078 13.1574Z" fill="#1D2433"/>
<path d="M2.50391 0.625H17.7813V1.99716H2.50391V0.625ZM2.50391 18.0028H17.7813V19.375H2.50391V18.0028ZM11.378 6.84315C10.4866 6.84315 9.73529 7.45322 9.51915 8.27771C10.6944 8.52054 11.622 9.44823 11.8648 10.6234C12.6893 10.4073 13.2994 9.65594 13.2994 8.76459C13.2994 7.7051 12.4375 6.84315 11.378 6.84315Z" fill="#1D2433"/>
<path d="M16.799 5.16809L17.5475 3.0957H2.73633L3.48475 5.16809V14.8318L2.73633 16.9042H17.5475L16.799 14.8318L16.799 5.16809ZM11.8834 11.7414C11.6418 13.1665 10.3993 14.2554 8.90654 14.2554C7.24123 14.2554 5.88644 12.9006 5.88644 11.2353C5.88644 9.74251 6.97537 8.49999 8.40044 8.25843C8.64199 6.83332 9.88451 5.74443 11.3773 5.74443C13.0426 5.74443 14.3974 7.09923 14.3974 8.76454C14.3974 10.2573 13.3085 11.4998 11.8834 11.7414Z" fill="#1D2433"/>
</svg>
