<svg width="11" height="20" viewBox="0 0 11 20" fill="none" xmlns="http://www.w3.org/2000/svg">
<path fill-rule="evenodd" clip-rule="evenodd" d="M10.0455 13.066L9.27038 19.51C9.27038 19.51 9.1172 20.0697 8.46944 19.9931H2.96066C2.31335 20.0697 2.15972 19.51 2.15972 19.51L1.40122 13.0647C1.20237 11.3668 1.19176 11.3673 1.18115 11.3687L1.05196 10.2923C0.525078 7.37364 2.79595 6.78124 2.79595 6.78124C3.83865 6.61653 4.06934 6.0675 4.06934 6.0675H7.36122C7.36122 6.0675 7.59191 6.61653 8.63461 6.78078C8.63461 6.78078 10.9059 7.37364 10.3791 10.2923L10.0455 13.066ZM2.43193 13.9749L2.21324 12.1567H3.48524C3.5729 12.1567 3.6481 12.1032 3.67994 12.027C3.8711 11.6533 4.16104 11.3391 4.51825 11.1186C4.87807 10.8971 5.29252 10.7803 5.71505 10.7813C6.1552 10.7813 6.56536 10.9045 6.91231 11.1186C7.27384 11.3416 7.56642 11.6606 7.75754 12.04C7.77532 12.0755 7.8023 12.1053 7.83625 12.1259C7.8702 12.1466 7.90928 12.1572 7.94901 12.1567H9.21778L8.99863 13.9749C8.99036 13.974 8.98204 13.9735 8.97372 13.9736H7.94532C7.90371 13.9736 7.86303 13.9859 7.82839 14.009C7.79376 14.0321 7.7667 14.0648 7.75062 14.1032C7.55937 14.4768 7.26944 14.7908 6.91231 15.0112C6.5524 15.2329 6.13778 15.3499 5.71505 15.3489C5.29248 15.3498 4.87803 15.2328 4.51825 15.0112C4.15672 14.7881 3.86413 14.4692 3.67302 14.0898H3.67348C3.65563 14.0544 3.62817 14.0247 3.59422 14.0041C3.56028 13.9836 3.52123 13.973 3.48155 13.9736H2.4573C2.44882 13.9735 2.44035 13.974 2.43193 13.9749ZM7.36122 5.72286V3.42891H4.06934V5.72286H7.36122ZM4.16576 0H7.26526C7.55961 0 7.85028 0.24545 7.80045 0.535191L7.36122 3.08381H4.06934L3.63057 0.535191C3.57982 0.244988 3.87095 0 4.16576 0Z" fill="#1D2433"/>
</svg>
