<svg width="14" height="16" viewBox="0 0 14 16" fill="none" xmlns="http://www.w3.org/2000/svg">
<path d="M6.08398 1.69198L4.23836 3.53725C4.22685 3.54712 4.21211 3.55249 4.19688 3.55229C4.18059 3.55209 4.16501 3.54552 4.15349 3.53399C4.14196 3.52247 4.1354 3.5069 4.13519 3.4906C4.13499 3.47537 4.14036 3.46064 4.15023 3.44913L6.95582 0.643536C6.96754 0.631823 6.98343 0.625244 7 0.625244C7.01657 0.625244 7.03246 0.631823 7.04418 0.643536L9.84977 3.44913C9.85964 3.46064 9.86501 3.47537 9.86481 3.4906C9.8646 3.5069 9.85804 3.52247 9.84651 3.53399L10.19 3.87745L9.84651 3.53399C9.83498 3.54552 9.81941 3.55209 9.80312 3.55229C9.78788 3.55249 9.77314 3.54712 9.76163 3.53725L7.91602 1.69198L7.0625 0.838624V2.04557V4.68748H6.9375V2.04557V0.838624L6.08398 1.69198ZM2.78178 5.68748L5.9375 5.68748V10.2851C5.9375 10.5669 6.04944 10.8372 6.2487 11.0364C6.44796 11.2357 6.71821 11.3476 7 11.3476C7.28179 11.3476 7.55204 11.2357 7.7513 11.0364C7.95056 10.8372 8.0625 10.5669 8.0625 10.2851V5.68748L11.2182 5.68748C11.2183 5.68748 11.2185 5.68748 11.2186 5.68748C11.608 5.688 11.9813 5.84293 12.2567 6.11829C12.5322 6.39374 12.6871 6.76722 12.6875 7.15677V13.9057C12.6871 14.2952 12.5322 14.6687 12.2567 14.9442C11.9812 15.2196 11.6078 15.3746 11.2182 15.375H2.78178C2.39223 15.3746 2.01876 15.2196 1.7433 14.9442C1.46791 14.6688 1.31298 14.2954 1.3125 13.906V7.15651C1.31298 6.76705 1.46791 6.39368 1.7433 6.11829C2.01866 5.84293 2.39198 5.688 2.78139 5.68748C2.78152 5.68748 2.78165 5.68748 2.78178 5.68748Z" fill="#D3178A" stroke="#D3178A"/>
</svg>
