<svg width="21" height="20" viewBox="0 0 21 20" fill="none" xmlns="http://www.w3.org/2000/svg">
<path d="M11.9634 0H11.9495H9.19594H9.18207C9.04699 0 8.9375 0.109492 8.9375 0.244571V1.39313C8.93746 1.52817 9.04695 1.6377 9.18203 1.6377H9.1959V3.42735C9.1959 3.89348 9.16586 4.35763 9.10707 4.81704L10.5727 6.28271L12.0384 4.81704C11.9796 4.35759 11.9496 3.89352 11.9496 3.42735V1.6377H11.9634C12.0985 1.6377 12.208 1.52821 12.208 1.39313V0.244571C12.208 0.109492 12.0985 0 11.9634 0Z" fill="#1D2433"/>
<path d="M13.4304 8.92668C13.042 8.25813 12.7275 7.55313 12.4896 6.82422L11.187 8.1268C11.0172 8.29657 10.7947 8.38149 10.5721 8.38149C10.3495 8.38149 10.127 8.29657 9.95723 8.1268L8.65465 6.82422C8.41672 7.55313 8.10219 8.25813 7.71383 8.92668C7.01344 10.1325 6.64453 11.5021 6.64453 12.8965V19.2941C6.64453 19.6837 6.96031 19.9994 7.34985 19.9994H13.7943C14.1838 19.9994 14.4996 19.6837 14.4996 19.2941V12.8965C14.4997 11.5021 14.1308 10.1325 13.4304 8.92668ZM7.99278 11.7108C8.02766 10.7978 8.30442 9.90723 8.79317 9.13528C8.92165 8.93235 9.19032 8.87215 9.39309 9.00051C9.59594 9.12899 9.6563 9.39754 9.5279 9.60044C9.1211 10.243 8.89075 10.9842 8.86172 11.744C8.85278 11.9783 8.66004 12.1622 8.42754 12.1622C8.42192 12.1622 8.41629 12.1621 8.41063 12.1619C8.17071 12.1527 7.9836 11.9508 7.99278 11.7108ZM12.8958 17.5647C12.8958 17.8128 12.6946 18.014 12.4465 18.014H8.69786C8.44973 18.014 8.2486 17.8128 8.2486 17.5647V15.1299C8.2486 14.8818 8.44973 14.6807 8.69786 14.6807H12.4465C12.6946 14.6807 12.8958 14.8818 12.8958 15.1299V17.5647Z" fill="#1D2433"/>
</svg>
