<svg width="133" height="40" viewBox="0 0 133 40" fill="none" xmlns="http://www.w3.org/2000/svg">
<path d="M39.1019 23.5341H41.4294L43.8899 19.9887L42.582 16.4432H40.2545L41.5624 19.9887L39.1019 23.5341ZM32.341 0.499838C26.7772 0.499838 23.5409 3.22025 22.632 8.66107L18.8637 31.3163C17.9549 36.7571 20.2824 39.4998 25.8462 39.4998C31.4322 39.4775 34.6685 36.7571 35.5774 31.3163L39.3457 8.66107C40.2545 3.22025 37.927 0.499838 32.341 0.499838ZM32.7622 6.8326C32.74 6.89949 32.74 6.96639 32.7179 7.03328C32.6735 7.14478 32.607 7.23397 32.5405 7.30087L32.5627 8.03672C32.5849 8.32659 32.5405 8.50498 32.474 8.63877C32.4297 8.75027 32.3632 8.81716 32.2745 8.86176L31.7425 15.2168C31.7204 15.3506 31.7869 15.4844 31.8977 15.5736C32.1194 15.7966 32.2745 16.1757 32.3854 16.6216C32.5184 17.2014 32.5627 17.9149 32.4297 18.6731L30.2574 32.0745C30.1909 32.4758 30.0579 32.8549 29.8584 33.1225C29.6367 33.4347 29.3485 33.613 28.9939 33.6353L24.5827 33.6576C24.228 33.6576 24.0064 33.4793 23.8955 33.1671C23.7847 32.8995 23.7847 32.5204 23.8512 32.0967L26.0235 18.6954C26.1344 17.9595 26.4225 17.2237 26.7329 16.6439C26.9989 16.1534 27.3314 15.7743 27.6417 15.5513C27.7304 15.4844 27.7969 15.3952 27.819 15.2837L29.3485 8.90635C29.3042 8.86176 29.2599 8.79486 29.2377 8.68337C29.2155 8.54958 29.2377 8.34889 29.3485 8.08131L29.6145 7.34546C29.5702 7.27857 29.5259 7.18937 29.5259 7.07788C29.5259 7.01099 29.5259 6.94409 29.548 6.8772C29.5702 6.8103 29.5702 6.74341 29.5924 6.67651C29.681 6.45353 29.8362 6.27514 30.0579 6.27514H32.4075C32.6292 6.27514 32.7179 6.45353 32.74 6.67651C32.7622 6.69881 32.7622 6.7657 32.7622 6.8326ZM78.4034 31.294C77.5167 36.7348 74.3912 39.4552 68.9825 39.4552C63.596 39.4552 61.335 36.7348 62.2217 31.294L65.8792 8.63877C66.7659 3.19795 69.8914 0.477539 75.2779 0.477539C80.6865 0.477539 82.9475 3.19795 82.0609 8.63877L78.4034 31.294ZM75.8099 8.66107C76.0315 7.25627 75.5439 6.54272 74.3247 6.54272H74.2804C73.0612 6.54272 72.3519 7.25627 72.108 8.66107L68.4505 31.3163C68.2289 32.7434 68.7165 33.457 69.9357 33.457C71.177 33.457 71.9085 32.7434 72.1302 31.3163L75.8099 8.66107ZM118.237 0.499838H132.512C132.778 0.499838 133 0.74512 132.956 1.0127L132.091 6.34203C132.047 6.56502 131.869 6.72111 131.648 6.72111H123.668C123.446 6.72111 123.269 6.8772 123.224 7.10018L121.717 16.3763C121.673 16.6439 121.872 16.8892 122.16 16.8892H128.633C128.899 16.8892 129.121 17.1345 129.076 17.4021L128.212 22.7537C128.168 22.9767 127.99 23.1328 127.769 23.1328H121.03C120.808 23.1328 120.631 23.2889 120.587 23.5118L119.079 32.788C119.035 33.0556 119.234 33.3009 119.523 33.3009H127.237C127.503 33.3009 127.724 33.5461 127.68 33.8137L126.815 39.1431C126.771 39.366 126.594 39.5221 126.372 39.5221H112.097C111.831 39.5221 111.631 39.2769 111.653 39.0093L117.816 0.878911C117.838 0.655927 118.015 0.499838 118.237 0.499838ZM115.887 4.29058L104.161 32.6542C104.05 32.9441 104.25 33.2786 104.56 33.2786H111.033C111.299 33.2786 111.52 33.5239 111.476 33.7914L110.612 39.1208C110.567 39.3437 110.39 39.4998 110.168 39.4998H96.1589C95.8929 39.4998 95.6712 39.2546 95.7155 38.987L96.2254 35.8206C96.2254 35.7983 96.2475 35.7537 96.2475 35.7314L107.974 7.36776C108.085 7.07788 107.885 6.7434 107.575 6.7434H101.678C101.412 6.7434 101.191 6.49812 101.235 6.23054L102.1 0.90121C102.144 0.678225 102.321 0.522136 102.543 0.522136H115.976C116.242 0.522136 116.464 0.767419 116.419 1.035L115.909 4.20138C115.909 4.22368 115.887 4.24598 115.887 4.29058ZM95.7599 31.294C94.8732 36.7348 91.7477 39.4552 86.339 39.4552C80.9525 39.4552 78.6915 36.7348 79.5782 31.294L83.2357 8.63877C84.1002 3.22025 87.2479 0.499838 92.6344 0.499838C98.043 0.499838 100.304 3.22025 99.4174 8.66107L95.7599 31.294ZM93.1664 8.66107C93.388 7.25627 92.9004 6.54272 91.6812 6.54272H91.6369C90.4177 6.54272 89.7084 7.25627 89.4645 8.66107L85.807 31.3163C85.5854 32.7434 86.073 33.457 87.2922 33.457C88.5335 33.457 89.265 32.7434 89.4867 31.3163L93.1664 8.66107ZM12.258 16.9561H19.4844C19.7504 16.9561 19.972 17.2014 19.9277 17.4467L17.6224 31.294C16.7135 36.7348 13.4772 39.4552 7.8912 39.4775C2.32737 39.4775 -0.000132859 36.7571 0.9087 31.294L4.67703 8.63877C5.58587 3.22025 8.8222 0.499838 14.386 0.499838C19.9499 0.499838 22.2774 3.22025 21.3907 8.66107L20.5484 13.6559C20.504 13.8566 20.3267 14.0127 20.105 14.0127H14.5634C14.2974 14.0127 14.0757 13.7674 14.12 13.5221L14.9402 8.66107C15.184 7.25627 14.6742 6.54272 13.3885 6.54272H13.3442C12.1029 6.54272 11.3492 7.25627 11.1054 8.66107L7.33703 31.3163C7.0932 32.7434 7.60303 33.457 8.8887 33.457C10.1744 33.457 10.928 32.7434 11.1497 31.3163L12.4575 23.5118C12.5019 23.2443 12.3024 23.0213 12.0142 23.0213H11.3935C11.1275 23.0213 10.9059 22.776 10.9502 22.5307L11.8147 17.3575C11.859 17.1122 12.0364 16.9561 12.258 16.9561ZM49.0104 0.878911C49.0547 0.655927 49.232 0.499838 49.4537 0.499838H58.01C63.197 0.522136 65.325 3.30944 64.4384 8.92865L63.5074 14.6817C63.1305 17.0453 62.1774 18.7177 60.6257 19.6765C60.3819 19.8326 60.3819 20.1894 60.6035 20.3678C61.7562 21.3489 62.1552 22.999 61.8005 25.2957L60.8695 31.0487C59.9607 36.6456 56.813 39.4552 51.4044 39.4552H43.3357C43.0697 39.4552 42.848 39.21 42.8924 38.9424L49.0104 0.878911ZM51.8034 23.4672L50.296 32.7434C50.2517 33.011 50.4512 33.2563 50.7394 33.2563H52.1359C53.3994 33.2563 54.153 32.5204 54.3747 31.0487L55.3057 25.2957C55.483 24.2254 55.1727 23.5341 54.419 23.2443C54.2195 23.1551 53.7762 23.1105 53.089 23.1105H52.2245C52.025 23.1105 51.8477 23.2666 51.8034 23.4672ZM54.8845 6.69881C54.6629 6.69881 54.4855 6.8549 54.4412 7.07788L52.8674 16.8669H54.1087C54.7959 16.8669 55.2614 16.8223 55.483 16.7554C56.3475 16.4209 56.8574 15.7297 57.0347 14.6817L57.9657 8.92865C58.2095 7.45695 57.6997 6.69881 56.4362 6.69881H54.8845Z" fill="#F33FAE"/>
</svg>
