<svg width="109" height="32" viewBox="0 0 109 32" fill="none" xmlns="http://www.w3.org/2000/svg">
<g clip-path="url(#clip0_1525_86)">
<path d="M32.0461 18.8999H33.9536L35.9701 15.9908L34.8982 13.0817H32.9907L34.0626 15.9908L32.0461 18.8999ZM26.5052 -1.43759e-05C21.9454 -1.43759e-05 19.2931 2.23212 18.5482 6.69638L15.4599 25.2853C14.7151 29.7496 16.6226 32 21.1824 32C25.7604 31.9817 28.4127 29.7496 29.1576 25.2853L32.2459 6.69638C32.9907 2.23212 31.0832 -1.43759e-05 26.5052 -1.43759e-05ZM26.8504 5.1961C26.8322 5.25099 26.8322 5.30587 26.8141 5.36076C26.7777 5.45224 26.7232 5.52543 26.6687 5.58032L26.6869 6.18409C26.7051 6.42194 26.6687 6.56831 26.6142 6.67809C26.5779 6.76957 26.5234 6.82446 26.4507 6.86105L26.0147 12.0755C25.9966 12.1852 26.0511 12.295 26.1419 12.3682C26.3236 12.5512 26.4507 12.8622 26.5416 13.2281C26.6506 13.7038 26.6869 14.2893 26.5779 14.9114L24.7976 25.9074C24.7431 26.2367 24.6341 26.5477 24.4706 26.7673C24.2889 27.0234 24.0527 27.1698 23.7621 27.1881L20.1469 27.2064C19.8562 27.2064 19.6746 27.06 19.5837 26.8039C19.4929 26.5843 19.4929 26.2733 19.5474 25.9257L21.3277 14.9297C21.4186 14.3259 21.6547 13.7221 21.9091 13.2464C22.1271 12.8439 22.3996 12.5329 22.6539 12.3499C22.7266 12.295 22.7811 12.2218 22.7992 12.1303L24.0527 6.89764C24.0164 6.86105 23.9801 6.80616 23.9619 6.71468C23.9437 6.6049 23.9619 6.44024 24.0527 6.22068L24.2707 5.61691C24.2344 5.56202 24.1981 5.48884 24.1981 5.39736C24.1981 5.34247 24.1981 5.28758 24.2162 5.23269C24.2344 5.1778 24.2344 5.12291 24.2526 5.06803C24.3252 4.88506 24.4524 4.73869 24.6341 4.73869H26.5597C26.7414 4.73869 26.8141 4.88506 26.8322 5.06803C26.8504 5.08632 26.8504 5.14121 26.8504 5.1961ZM64.2556 25.267C63.5289 29.7313 60.9674 31.9634 56.5347 31.9634C52.1202 31.9634 50.2672 29.7313 50.9939 25.267L53.9914 6.67809C54.7181 2.21382 57.2796 -0.0183105 61.6941 -0.0183105C66.1267 -0.0183105 67.9797 2.21382 67.2531 6.67809L64.2556 25.267ZM62.1301 6.69638C62.3117 5.54372 61.9121 4.95825 60.9129 4.95825H60.8766C59.8774 4.95825 59.2961 5.54372 59.0962 6.69638L56.0987 25.2853C55.9171 26.4562 56.3167 27.0417 57.3159 27.0417C58.3332 27.0417 58.9327 26.4562 59.1144 25.2853L62.1301 6.69638ZM96.9011 -1.43759e-05H108.6C108.818 -1.43759e-05 109 0.201243 108.964 0.420798L108.255 4.79358C108.219 4.97654 108.074 5.10462 107.892 5.10462H101.352C101.17 5.10462 101.025 5.23269 100.989 5.41565L99.7532 13.0269C99.7169 13.2464 99.8804 13.4477 100.117 13.4477H105.421C105.639 13.4477 105.821 13.6489 105.785 13.8685L105.076 18.2596C105.04 18.4425 104.894 18.5706 104.713 18.5706H99.1901C99.0084 18.5706 98.8631 18.6987 98.8267 18.8816L97.5914 26.4928C97.5551 26.7124 97.7186 26.9137 97.9547 26.9137H104.277C104.495 26.9137 104.676 27.1149 104.64 27.3345L103.932 31.7073C103.895 31.8902 103.75 32.0183 103.568 32.0183H91.8689C91.6509 32.0183 91.4874 31.817 91.5056 31.5975L96.5559 0.311021C96.5741 0.128059 96.7194 -1.43759e-05 96.9011 -1.43759e-05ZM94.9754 3.11033L85.3652 26.3831C85.2744 26.6209 85.4379 26.8954 85.6922 26.8954H90.9969C91.2149 26.8954 91.3966 27.0966 91.3602 27.3162L90.6517 31.689C90.6154 31.8719 90.4701 32 90.2884 32H78.8071C78.5891 32 78.4074 31.7987 78.4437 31.5792L78.8616 28.9811C78.8616 28.9628 78.8797 28.9262 78.8797 28.9079L88.4899 5.63521C88.5807 5.39736 88.4172 5.12291 88.1629 5.12291H83.3306C83.1126 5.12291 82.9309 4.92166 82.9672 4.7021L83.6757 0.329317C83.7121 0.146355 83.8574 0.0182818 84.0391 0.0182818H95.0481C95.2661 0.0182818 95.4477 0.21954 95.4114 0.439094L94.9936 3.03715C94.9936 3.05545 94.9754 3.07374 94.9754 3.11033ZM78.4801 25.267C77.7534 29.7313 75.1919 31.9634 70.7592 31.9634C66.3447 31.9634 64.4917 29.7313 65.2184 25.267L68.2159 6.67809C68.9244 2.23212 71.5041 -1.43759e-05 75.9186 -1.43759e-05C80.3512 -1.43759e-05 82.2042 2.23212 81.4776 6.69638L78.4801 25.267ZM76.3546 6.69638C76.5362 5.54372 76.1366 4.95825 75.1374 4.95825H75.1011C74.1019 4.95825 73.5206 5.54372 73.3207 6.69638L70.3232 25.2853C70.1416 26.4562 70.5412 27.0417 71.5404 27.0417C72.5577 27.0417 73.1572 26.4562 73.3389 25.2853L76.3546 6.69638ZM10.0462 13.5026H15.9686C16.1866 13.5026 16.3682 13.7038 16.3319 13.9051L14.4426 25.267C13.6977 29.7313 11.0454 31.9634 6.46739 31.9817C1.90755 31.9817 5.3525e-05 29.7496 0.744887 25.267L3.83322 6.67809C4.57805 2.23212 7.23039 -1.43759e-05 11.7902 -1.43759e-05C16.3501 -1.43759e-05 18.2576 2.23212 17.5309 6.69638L16.8406 10.7947C16.8042 10.9594 16.6589 11.0875 16.4772 11.0875H11.9356C11.7176 11.0875 11.5359 10.8862 11.5722 10.6849L12.2444 6.69638C12.4442 5.54372 12.0264 4.95825 10.9727 4.95825H10.9364C9.91905 4.95825 9.30139 5.54372 9.10155 6.69638L6.01322 25.2853C5.81339 26.4562 6.23122 27.0417 7.28489 27.0417C8.33855 27.0417 8.95622 26.4562 9.13789 25.2853L10.2097 18.8816C10.2461 18.6621 10.0826 18.4791 9.84639 18.4791H9.33772C9.11972 18.4791 8.93805 18.2779 8.97439 18.0766L9.68289 13.8319C9.71922 13.6306 9.86455 13.5026 10.0462 13.5026ZM40.1666 0.311021C40.2029 0.128059 40.3482 -1.43759e-05 40.5299 -1.43759e-05H47.5422C51.7932 0.0182818 53.5372 2.3053 52.8106 6.91594L52.0476 11.6363C51.7387 13.5757 50.9576 14.948 49.6859 15.7347C49.4861 15.8628 49.4861 16.1555 49.6677 16.3019C50.6124 17.1069 50.9394 18.4608 50.6487 20.3453L49.8857 25.0657C49.1409 29.6581 46.5612 31.9634 42.1286 31.9634H35.5159C35.2979 31.9634 35.1162 31.7621 35.1526 31.5426L40.1666 0.311021ZM42.4556 18.845L41.2202 26.4562C41.1839 26.6758 41.3474 26.8771 41.5836 26.8771H42.7281C43.7636 26.8771 44.3812 26.2733 44.5629 25.0657L45.3259 20.3453C45.4712 19.4671 45.2169 18.8999 44.5992 18.6621C44.4357 18.5889 44.0724 18.5523 43.5092 18.5523H42.8007C42.6372 18.5523 42.4919 18.6804 42.4556 18.845ZM44.9807 5.08632C44.7991 5.08632 44.6537 5.21439 44.6174 5.39736L43.3276 13.4294H44.3449C44.9081 13.4294 45.2896 13.3928 45.4712 13.3379C46.1797 13.0635 46.5976 12.4963 46.7429 11.6363L47.5059 6.91594C47.7057 5.70839 47.2879 5.08632 46.2524 5.08632H44.9807Z" fill="#D3178A"/>
</g>
<defs>
<clipPath id="clip0_1525_86">
<rect width="109" height="32" fill="white"/>
</clipPath>
</defs>
</svg>
