<svg width="18" height="18" viewBox="0 0 18 18" fill="none" xmlns="http://www.w3.org/2000/svg">
<path fill-rule="evenodd" clip-rule="evenodd" d="M1.65625 1.5C1.56996 1.5 1.5 1.56996 1.5 1.65625V6.96875C1.5 7.05504 1.56996 7.125 1.65625 7.125H6.96875C7.05504 7.125 7.125 7.05504 7.125 6.96875V1.65625C7.125 1.56996 7.05504 1.5 6.96875 1.5H1.65625ZM0.25 1.65625C0.25 0.8796 0.8796 0.25 1.65625 0.25H6.96875C7.7454 0.25 8.375 0.8796 8.375 1.65625V6.96875C8.375 7.7454 7.7454 8.375 6.96875 8.375H1.65625C0.8796 8.375 0.25 7.7454 0.25 6.96875V1.65625ZM11.0312 1.5C10.945 1.5 10.875 1.56996 10.875 1.65625V6.96875C10.875 7.05504 10.945 7.125 11.0312 7.125H16.3438C16.43 7.125 16.5 7.05504 16.5 6.96875V1.65625C16.5 1.56996 16.43 1.5 16.3438 1.5H11.0312ZM9.625 1.65625C9.625 0.8796 10.2546 0.25 11.0312 0.25H16.3438C17.1204 0.25 17.75 0.8796 17.75 1.65625V6.96875C17.75 7.7454 17.1204 8.375 16.3438 8.375H11.0312C10.2546 8.375 9.625 7.7454 9.625 6.96875V1.65625ZM1.65625 10.875C1.56996 10.875 1.5 10.945 1.5 11.0312V16.3438C1.5 16.43 1.56996 16.5 1.65625 16.5H6.96875C7.05504 16.5 7.125 16.43 7.125 16.3438V11.0312C7.125 10.945 7.05504 10.875 6.96875 10.875H1.65625ZM0.25 11.0312C0.25 10.2546 0.8796 9.625 1.65625 9.625H6.96875C7.7454 9.625 8.375 10.2546 8.375 11.0312V16.3438C8.375 17.1204 7.7454 17.75 6.96875 17.75H1.65625C0.8796 17.75 0.25 17.1204 0.25 16.3438V11.0312ZM11.0312 10.875C10.945 10.875 10.875 10.945 10.875 11.0312V16.3438C10.875 16.43 10.945 16.5 11.0312 16.5H16.3438C16.43 16.5 16.5 16.43 16.5 16.3438V11.0312C16.5 10.945 16.43 10.875 16.3438 10.875H11.0312ZM9.625 11.0312C9.625 10.2546 10.2546 9.625 11.0312 9.625H16.3438C17.1204 9.625 17.75 10.2546 17.75 11.0312V16.3438C17.75 17.1204 17.1204 17.75 16.3438 17.75H11.0312C10.2546 17.75 9.625 17.1204 9.625 16.3438V11.0312Z" fill="#1D2433" fill-opacity="0.8"/>
</svg>
