<svg width="18" height="18" viewBox="0 0 18 18" fill="none" xmlns="http://www.w3.org/2000/svg">
<path d="M16.1953 4.04688L10.2578 0.589844C9.48438 0.136719 8.51953 0.136719 7.74609 0.589844L1.80859 4.04688C1.23438 4.37891 0.875 5 0.875 5.66406V12.3359C0.875 13 1.23047 13.6211 1.80469 13.9531L7.74219 17.4102C8.11328 17.625 8.52344 17.7383 8.94141 17.7461C8.96094 17.7461 8.98047 17.75 9 17.75C9.01953 17.75 9.03906 17.75 9.05859 17.7461C9.47266 17.7383 9.88672 17.625 10.2578 17.4102L16.1953 13.9531C16.7695 13.6172 17.125 13 17.125 12.3359V5.66406C17.125 5 16.7656 4.37891 16.1953 4.04688ZM8.37109 1.67188C8.56641 1.55859 8.78125 1.50391 9 1.50391C9.21875 1.50391 9.43359 1.55859 9.62891 1.67188L15.2227 4.92969L9 8.58594L2.77734 4.92578L8.37109 1.67188ZM2.43359 12.875C2.24219 12.7617 2.125 12.5547 2.125 12.3359V5.99219L8.375 9.66797V16.3281C8.375 16.3281 8.375 16.3281 8.37109 16.3281L2.43359 12.875ZM15.5664 12.875L9.62891 16.332H9.625V9.66797L15.875 5.99219V12.332C15.875 12.5547 15.7578 12.7617 15.5664 12.875Z" fill="#1D2433" fill-opacity="0.8"/>
</svg>
