<svg width="20" height="18" viewBox="0 0 20 18" fill="none" xmlns="http://www.w3.org/2000/svg">
<path fill-rule="evenodd" clip-rule="evenodd" d="M2.54101 1.80446C2.98254 0.841021 3.987 0.25 5.05957 0.25H14.94C16.0126 0.25 17.0171 0.841021 17.4586 1.80446L17.4587 1.80459L19.1499 5.49726C19.15 5.49736 19.15 5.49746 19.1501 5.49756C19.7181 6.73645 19.1742 8.03479 18.1248 8.6742V16.5H18.7498C19.095 16.5 19.3748 16.7798 19.3748 17.125C19.3748 17.4702 19.095 17.75 18.7498 17.75H1.24981C0.904627 17.75 0.624805 17.4702 0.624805 17.125C0.624805 16.7798 0.904627 16.5 1.24981 16.5H1.87481V8.6747C0.825294 8.03549 0.281642 6.73678 0.849538 5.49756C0.849563 5.4975 0.849587 5.49745 0.849611 5.4974L2.54101 1.80446ZM3.12481 9.07185V16.5H10.6248V11.1875C10.6248 10.7731 10.7894 10.3757 11.0825 10.0826C11.3755 9.78962 11.7729 9.625 12.1873 9.625H14.6873C15.1017 9.625 15.4991 9.78962 15.7922 10.0826C16.0852 10.3757 16.2498 10.7731 16.2498 11.1875V16.5H16.8748V9.07181C16.8361 9.07459 16.7971 9.0766 16.7579 9.07782C16.7515 9.07802 16.745 9.07812 16.7385 9.07812H16.6623C15.7844 9.07812 14.9717 8.69677 14.4415 8.08175C13.9112 8.69679 13.0984 9.07812 12.2205 9.07812C11.3442 9.07812 10.5413 8.67747 10.0134 8.06675C9.48428 8.69046 8.66642 9.07812 7.78106 9.07812C6.89741 9.07812 6.08818 8.67068 5.56039 8.0512C5.03269 8.671 4.2232 9.07812 3.33926 9.07812H3.26113C3.25476 9.07812 3.24838 9.07803 3.24201 9.07783C3.2027 9.07663 3.16362 9.07463 3.12481 9.07185ZM6.18496 6.41289C6.18496 7.08712 6.8633 7.82812 7.78106 7.82812C8.71264 7.82812 9.37481 7.14652 9.37481 6.41289C9.37481 6.06771 9.65463 5.78789 9.99981 5.78789C10.345 5.78789 10.6248 6.06771 10.6248 6.41289C10.6248 7.08725 11.3029 7.82812 12.2205 7.82812C13.153 7.82812 13.8166 7.1457 13.8166 6.41289C13.8166 6.06771 14.0964 5.78789 14.4416 5.78789C14.7868 5.78789 15.0666 6.06771 15.0666 6.41289C15.0666 7.14584 15.73 7.82812 16.6623 7.82812H16.728C17.8069 7.78911 18.3698 6.79468 18.0137 6.01836L18.0136 6.01807L16.3223 2.32523C16.3222 2.32519 16.3222 2.32514 16.3222 2.3251C16.1028 1.84642 15.5698 1.5 14.94 1.5H5.05957C4.42985 1.5 3.89686 1.84642 3.67742 2.3251C3.6774 2.32514 3.67738 2.32519 3.67736 2.32523L1.98594 6.01823C1.62957 6.79573 2.19312 7.78979 3.27141 7.82812H3.33926C4.25726 7.82812 4.93496 7.08884 4.93496 6.41289C4.93496 6.06771 5.21478 5.78789 5.55996 5.78789C5.90514 5.78789 6.18496 6.06771 6.18496 6.41289ZM14.9998 16.5V11.1875C14.9998 11.1046 14.9669 11.0251 14.9083 10.9665C14.8497 10.9079 14.7702 10.875 14.6873 10.875H12.1873C12.1044 10.875 12.0249 10.9079 11.9663 10.9665C11.9077 11.0251 11.8748 11.1046 11.8748 11.1875V16.5H14.9998ZM5.31231 10.875C5.22943 10.875 5.14994 10.9079 5.09133 10.9665C5.03273 11.0251 4.99981 11.1046 4.99981 11.1875V14H8.74981V11.1875C8.74981 11.1046 8.71688 11.0251 8.65828 10.9665C8.59967 10.9079 8.52019 10.875 8.43731 10.875H5.31231ZM4.20745 10.0826C4.50048 9.78962 4.8979 9.625 5.31231 9.625H8.43731C8.85171 9.625 9.24914 9.78962 9.54216 10.0826C9.83519 10.3757 9.99981 10.7731 9.99981 11.1875V14.625C9.99981 14.9702 9.71998 15.25 9.37481 15.25H4.37481C4.02963 15.25 3.74981 14.9702 3.74981 14.625V11.1875C3.74981 10.7731 3.91443 10.3757 4.20745 10.0826Z" fill="#1D2433" fill-opacity="0.8"/>
</svg>
