<svg width="43" height="42" viewBox="0 0 43 42" fill="none" xmlns="http://www.w3.org/2000/svg">
<path d="M39.7787 13.3174L37.6787 28.3324C37.2237 31.4824 35.4912 33.1449 32.6387 33.1449C32.4112 33.1449 32.1837 33.1274 31.9387 33.1099C31.9893 32.7681 32.0127 32.4229 32.0087 32.0774V16.9049C32.0974 16.2713 32.0376 15.6257 31.8339 15.0193C31.6302 14.4128 31.2882 13.862 30.835 13.4104C30.3817 12.9589 29.8297 12.619 29.2224 12.4176C28.6152 12.2161 27.9694 12.1587 27.3362 12.2499H9.88867C9.88867 12.2149 9.90617 12.1624 9.90617 12.1274L10.3262 9.18738C10.3811 8.43839 10.5842 7.70776 10.9236 7.03786C11.2631 6.36795 11.7322 5.77211 12.3037 5.28488C12.9305 4.87189 13.6326 4.58665 14.3698 4.44551C15.1071 4.30437 15.8649 4.3101 16.5999 4.46238L35.0799 7.05238C35.8271 7.11225 36.555 7.31934 37.2217 7.66173C37.8885 8.00413 38.4809 8.47505 38.9649 9.04738C39.3831 9.66672 39.6709 10.3647 39.8108 11.0987C39.9506 11.8328 39.9397 12.5877 39.7787 13.3174Z" fill="#D3178A"/>
<path d="M3.99957 32.0822V16.9132C3.90948 16.2795 3.96814 15.6335 4.17089 15.0263C4.37364 14.4191 4.71492 13.8675 5.16772 13.415C5.62053 12.9626 6.17243 12.6217 6.77975 12.4194C7.38707 12.2171 8.03313 12.1589 8.66682 12.2495H27.3358C27.9692 12.1599 28.6147 12.2188 29.2214 12.4215C29.8281 12.6242 30.3793 12.9651 30.8316 13.4175C31.2839 13.8698 31.6249 14.421 31.8276 15.0277C32.0303 15.6344 32.0892 16.2799 31.9996 16.9132V32.0822C32.0898 32.7159 32.0313 33.3618 31.8289 33.9689C31.6265 34.5761 31.2856 35.1278 30.8332 35.5805C30.3808 36.0332 29.8294 36.3745 29.2224 36.5774C28.6154 36.7803 27.9695 36.8392 27.3358 36.7495H8.66682C8.0328 36.8402 7.38637 36.782 6.77875 36.5795C6.17113 36.377 5.619 36.0358 5.16612 35.5829C4.71324 35.1301 4.37204 34.5779 4.16956 33.9703C3.96708 33.3627 3.90888 32.7163 3.99957 32.0822Z" fill="#D3178A" fill-opacity="0.25098"/>
<path d="M22.375 23.1875H19.3125V20.125C19.3125 19.7769 19.1742 19.4431 18.9281 19.1969C18.6819 18.9508 18.3481 18.8125 18 18.8125C17.6519 18.8125 17.3181 18.9508 17.0719 19.1969C16.8258 19.4431 16.6875 19.7769 16.6875 20.125V23.1875H13.625C13.2769 23.1875 12.9431 23.3258 12.6969 23.5719C12.4508 23.8181 12.3125 24.1519 12.3125 24.5C12.3125 24.8481 12.4508 25.1819 12.6969 25.4281C12.9431 25.6742 13.2769 25.8125 13.625 25.8125H16.6875V28.875C16.6875 29.2231 16.8258 29.5569 17.0719 29.8031C17.3181 30.0492 17.6519 30.1875 18 30.1875C18.3481 30.1875 18.6819 30.0492 18.9281 29.8031C19.1742 29.5569 19.3125 29.2231 19.3125 28.875V25.8125H22.375C22.7231 25.8125 23.0569 25.6742 23.3031 25.4281C23.5492 25.1819 23.6875 24.8481 23.6875 24.5C23.6875 24.1519 23.5492 23.8181 23.3031 23.5719C23.0569 23.3258 22.7231 23.1875 22.375 23.1875Z" fill="#D3178A"/>
</svg>
