<?xml version="1.0" encoding="UTF-8"?>
<!DOCTYPE svg PUBLIC "-//W3C//DTD SVG 1.1//EN" "http://www.w3.org/Graphics/SVG/1.1/DTD/svg11.dtd">
<svg xmlns="http://www.w3.org/2000/svg" version="1.1" width="512px" height="512px" style="shape-rendering:geometricPrecision; text-rendering:geometricPrecision; image-rendering:optimizeQuality; fill-rule:evenodd; clip-rule:evenodd" xmlns:xlink="http://www.w3.org/1999/xlink">
<g><path style="opacity:0.999" fill="#d3188a" d="M 65.5,-0.5 C 192.167,-0.5 318.833,-0.5 445.5,-0.5C 481.167,7.83333 503.167,29.8333 511.5,65.5C 511.5,192.167 511.5,318.833 511.5,445.5C 503.167,481.167 481.167,503.167 445.5,511.5C 318.833,511.5 192.167,511.5 65.5,511.5C 29.8333,503.167 7.83333,481.167 -0.5,445.5C -0.5,318.833 -0.5,192.167 -0.5,65.5C 7.83333,29.8333 29.8333,7.83333 65.5,-0.5 Z"/></g>
<g><path style="opacity:1" fill="#fefefe" d="M 182.5,64.5 C 201.29,62.9907 219.623,65.1574 237.5,71C 253.34,78.1632 262.84,90.3299 266,107.5C 266.667,117.5 266.667,127.5 266,137.5C 262.971,155.876 259.804,174.209 256.5,192.5C 237.167,192.5 217.833,192.5 198.5,192.5C 201.12,173.611 204.12,154.777 207.5,136C 207.004,127.319 202.67,121.652 194.5,119C 180.153,116.09 169.986,121.257 164,134.5C 150.067,214.096 136.567,293.762 123.5,373.5C 124.792,388.837 133.125,395.004 148.5,392C 156.639,390.532 162.472,386.032 166,378.5C 171.679,349.435 176.846,320.269 181.5,291C 182.107,286.876 180.44,284.209 176.5,283C 173.183,282.502 169.85,282.335 166.5,282.5C 169.5,264.5 172.5,246.5 175.5,228.5C 200.5,228.5 225.5,228.5 250.5,228.5C 242.766,277.571 234.599,326.571 226,375.5C 218.451,413.716 195.618,436.549 157.5,444C 135.701,448.463 114.367,446.963 93.5,439.5C 76.1276,431.456 66.6276,417.789 65,398.5C 64.3333,390.5 64.3333,382.5 65,374.5C 78.2162,296.536 91.2162,218.536 104,140.5C 111.766,95.8969 137.933,70.5636 182.5,64.5 Z"/></g>
<g><path style="opacity:1" fill="#fefefe" d="M 363.5,64.5 C 383.55,62.8027 402.884,65.636 421.5,73C 435.454,80.7113 443.62,92.5446 446,108.5C 446.667,116.833 446.667,125.167 446,133.5C 432.892,211.816 419.892,290.149 407,368.5C 400.176,414.659 373.676,440.492 327.5,446C 306.548,448.864 286.548,445.864 267.5,437C 250.372,425.506 242.706,409.339 244.5,388.5C 244.525,381.131 245.025,373.798 246,366.5C 258.99,290.891 271.657,215.225 284,139.5C 292.353,94.9733 318.853,69.9733 363.5,64.5 Z"/></g>
<g><path style="opacity:1" fill="#d3198a" d="M 352.5,115.5 C 361.839,115.334 371.173,115.5 380.5,116C 385.541,119.773 386.374,124.273 383,129.5C 382.667,134.167 382.333,138.833 382,143.5C 381.581,144.672 380.915,145.672 380,146.5C 377.615,167.452 376.281,188.452 376,209.5C 382.036,218.634 384.036,228.634 382,239.5C 374.72,286.234 367.053,332.901 359,379.5C 357.684,386.815 353.517,391.648 346.5,394C 329.833,394.667 313.167,394.667 296.5,394C 293.244,392.413 291.077,389.913 290,386.5C 289.333,381.5 289.333,376.5 290,371.5C 297.548,326.881 304.881,282.214 312,237.5C 314.852,226.121 320.519,216.455 329,208.5C 333.932,187.604 339.099,166.77 344.5,146C 343.982,144.374 343.648,142.707 343.5,141C 345.746,135.066 346.912,128.899 347,122.5C 347.967,119.379 349.8,117.046 352.5,115.5 Z"/></g>
</svg>
