<svg width="18" height="18" viewBox="0 0 18 18" fill="none" xmlns="http://www.w3.org/2000/svg">
<path d="M16.2225 4.32421C16.2461 4.31044 16.2657 4.29074 16.2793 4.26706C16.2929 4.24338 16.3 4.21655 16.3 4.18924C16.3 4.16194 16.2929 4.13511 16.2793 4.11143C16.2657 4.08775 16.2461 4.06804 16.2225 4.05428L10.2561 0.587877C9.87437 0.366596 9.44094 0.250061 8.99969 0.250061C8.55843 0.250061 8.125 0.366596 7.74324 0.587877L1.77801 4.05428C1.75442 4.06804 1.73485 4.08775 1.72125 4.11143C1.70765 4.13511 1.70049 4.16194 1.70049 4.18924C1.70049 4.21655 1.70765 4.24338 1.72125 4.26706C1.73485 4.29074 1.75442 4.31044 1.77801 4.32421L8.92176 8.52655C8.94579 8.5407 8.97317 8.54817 9.00105 8.54817C9.02894 8.54817 9.05632 8.5407 9.08035 8.52655L16.2225 4.32421Z" fill="#1D2433"/>
<path d="M1.10926 5.3871C1.08543 5.37334 1.05839 5.36612 1.03088 5.36616C1.00336 5.3662 0.976349 5.37351 0.952566 5.38735C0.928783 5.40118 0.909074 5.42105 0.895433 5.44494C0.881793 5.46884 0.874703 5.49591 0.874881 5.52342V12.316C0.875471 12.6433 0.961744 12.9648 1.12512 13.2485C1.2885 13.5321 1.52328 13.768 1.80613 13.9328L8.14051 17.7308C8.16425 17.7446 8.19118 17.7518 8.21859 17.7518C8.24601 17.7518 8.27294 17.7446 8.29669 17.7309C8.32044 17.7172 8.34016 17.6975 8.35389 17.6738C8.36761 17.65 8.37485 17.6231 8.37488 17.5957V9.71483C8.37485 9.68743 8.36762 9.66052 8.35391 9.6368C8.3402 9.61307 8.32049 9.59337 8.29676 9.57967L1.10926 5.3871Z" fill="#1D2433"/>
<path d="M9.62488 9.74217V17.5937C9.62491 17.6212 9.63215 17.6481 9.64588 17.6718C9.6596 17.6955 9.67933 17.7152 9.70308 17.7289C9.72682 17.7426 9.75376 17.7498 9.78117 17.7498C9.80859 17.7498 9.83552 17.7426 9.85926 17.7289L16.1932 13.9308C16.4759 13.7663 16.7106 13.5307 16.874 13.2474C17.0374 12.9641 17.1239 12.643 17.1249 12.316V5.52342C17.1248 5.49604 17.1175 5.46917 17.1037 5.44549C17.09 5.42182 17.0703 5.40217 17.0465 5.38852C17.0228 5.37487 16.9959 5.3677 16.9685 5.36772C16.9411 5.36775 16.9142 5.37497 16.8905 5.38866L9.70301 9.60741C9.67933 9.62107 9.65966 9.64071 9.64595 9.66436C9.63224 9.68801 9.62498 9.71484 9.62488 9.74217Z" fill="#1D2433"/>
</svg>
